<?xml version="1.0" standalone="no"?>
<!DOCTYPE svg PUBLIC "-//W3C//DTD SVG 20010904//EN"
 "http://www.w3.org/TR/2001/REC-SVG-20010904/DTD/svg10.dtd">
<svg version="1.0" xmlns="http://www.w3.org/2000/svg"
 width="800.000000pt" height="800.000000pt" viewBox="0 0 800.000000 800.000000"
 preserveAspectRatio="xMidYMid meet">
<metadata>
Created by potrace 1.11, written by Peter Selinger 2001-2013
</metadata>
<g transform="translate(0.000000,800.000000) scale(0.100000,-0.100000)"
fill="#000000" stroke="none">
<path d="M3778 7996 c-1 -2 -43 -6 -93 -10 -106 -7 -155 -13 -250 -27 -38 -6
-86 -12 -105 -15 -19 -2 -78 -14 -130 -25 -52 -11 -103 -22 -114 -24 -130 -27
-386 -107 -556 -175 -403 -159 -794 -395 -1136 -685 -89 -76 -391 -381 -460
-465 -256 -314 -441 -610 -590 -947 -56 -127 -132 -323 -140 -358 -2 -11 -8
-31 -13 -45 -37 -95 -113 -410 -136 -560 -4 -25 -9 -54 -11 -65 -47 -248 -53
-782 -13 -1090 72 -558 237 -1042 517 -1525 297 -510 733 -973 1234 -1308 295
-198 624 -358 958 -469 166 -54 418 -119 540 -138 19 -3 42 -8 50 -10 8 -2 38
-7 66 -10 28 -3 59 -7 70 -9 10 -2 51 -7 89 -11 39 -4 86 -9 105 -12 64 -9
543 -11 635 -2 187 17 212 20 275 30 36 6 81 12 100 15 19 2 78 14 130 25 52
11 104 22 114 25 52 10 190 48 261 70 44 14 87 27 95 29 15 4 193 70 265 100
208 85 481 232 683 367 92 61 294 211 328 243 6 5 41 35 77 65 93 78 349 338
438 445 346 416 582 845 750 1360 31 93 94 333 104 395 3 19 10 51 15 70 4 19
11 57 15 83 3 27 8 59 11 70 47 242 54 783 13 1092 -50 387 -146 742 -292
1081 -52 120 -135 289 -184 372 -24 41 -43 76 -43 78 0 10 -149 236 -214 324
-146 200 -216 281 -416 480 -161 160 -203 200 -270 251 -24 19 -51 40 -58 47
-32 29 -174 133 -274 200 -419 281 -897 481 -1393 586 -138 29 -161 33 -224
42 -25 3 -55 7 -67 9 -11 2 -52 6 -90 10 -38 4 -85 9 -104 12 -38 5 -556 13
-562 9z m884 -2336 c304 -151 555 -277 558 -280 3 -3 249 -126 548 -275 306
-152 556 -282 572 -298 56 -54 46 -139 -21 -190 -29 -21 -288 -181 -369 -228
-14 -8 -27 -16 -30 -19 -3 -3 -16 -11 -30 -19 -38 -22 -230 -140 -270 -165
-59 -38 -423 -261 -434 -265 -6 -2 -15 -8 -21 -13 -15 -13 -185 -118 -191
-118 -3 0 -36 -20 -74 -45 -38 -25 -80 -50 -94 -57 -14 -6 -26 -15 -26 -20 0
-4 -4 -8 -9 -8 -10 0 -317 -186 -407 -246 -28 -19 -53 -34 -57 -34 -3 0 -26
-14 -51 -30 -91 -62 -153 -83 -246 -83 -47 0 -97 2 -111 6 -23 4 -98 41 -148
72 -9 6 -75 46 -146 89 -72 43 -152 93 -180 111 -27 18 -129 80 -225 138 -96
59 -182 111 -190 117 -8 5 -166 102 -350 214 -184 113 -366 224 -405 249 -38
24 -180 111 -314 192 -134 82 -257 160 -272 173 -40 33 -56 91 -38 134 14 34
56 77 76 78 6 0 13 3 15 8 2 4 163 86 358 182 195 96 357 177 360 180 8 9 300
150 310 150 4 0 10 3 12 8 2 4 62 36 133 71 223 109 370 183 379 192 6 5 18 9
27 9 10 0 19 3 21 8 4 10 522 265 578 285 8 3 59 4 112 4 l97 -2 553 -275z
m1552 -2254 l1 -736 25 -17 c77 -53 112 -117 112 -205 0 -74 -4 -94 -20 -110
-7 -7 -12 -16 -12 -20 0 -23 -86 -96 -122 -104 -5 -1 -9 -2 -10 -4 -5 -3 -41
-9 -72 -11 -96 -6 -208 72 -236 163 -34 115 0 209 108 295 l22 18 0 686 1 686
27 24 c15 14 54 41 87 61 51 32 62 35 74 23 12 -11 14 -133 15 -749z m-413
530 c11 -27 14 -130 12 -513 -2 -473 -3 -527 -16 -540 -4 -3 -7 -14 -7 -23 0
-20 -52 -121 -84 -163 -53 -71 -181 -188 -271 -249 -90 -59 -307 -178 -328
-178 -5 0 -32 -11 -60 -23 -43 -20 -76 -32 -117 -42 -3 0 -27 -8 -55 -17 -89
-28 -167 -50 -194 -54 -14 -3 -53 -11 -86 -19 -33 -7 -85 -16 -116 -19 -31 -4
-67 -9 -80 -12 -121 -26 -663 -26 -799 0 -22 4 -60 10 -153 22 -15 2 -36 8
-46 13 -10 6 -20 8 -23 6 -6 -7 -216 48 -318 83 -488 167 -811 432 -867 711
-8 40 -9 890 -1 945 14 97 57 103 183 25 49 -30 103 -63 121 -74 18 -11 107
-65 196 -120 90 -55 171 -104 180 -110 10 -5 73 -44 140 -86 108 -67 397 -245
438 -270 8 -5 71 -43 139 -85 104 -64 149 -88 181 -99 3 -1 12 -5 20 -8 51
-23 132 -34 228 -32 155 3 202 23 517 217 145 90 277 169 292 177 15 8 30 18
31 23 2 4 8 8 13 8 6 0 37 18 70 40 33 22 62 40 64 40 4 0 173 104 190 117 6
4 23 15 38 23 46 26 430 261 461 282 24 17 63 34 87 37 4 1 13 -14 20 -33z"/>
</g>
</svg>
